<svg version="1.1" id="Layer_1" xmlns="http://www.w3.org/2000/svg" xmlns:xlink="http://www.w3.org/1999/xlink" x="0px" y="0px"
	 width="100%" viewBox="0 0 148 174" enable-background="new 0 0 148 174" xml:space="preserve">
<path fill="#030303" opacity="1.000000" stroke="none" 
	d="
M76.000000,175.000000 
	C50.666668,175.000000 25.833334,175.000000 1.000000,175.000000 
	C1.000000,117.000000 1.000000,59.000000 1.000000,1.000000 
	C50.333332,1.000000 99.666664,1.000000 149.000000,1.000000 
	C149.000000,59.000000 149.000000,117.000000 149.000000,175.000000 
	C124.833336,175.000000 100.666664,175.000000 76.000000,175.000000 
M63.763710,147.977905 
	C62.988735,147.679901 62.215019,147.378601 61.438610,147.084381 
	C31.149868,135.606583 16.311371,101.746040 28.353062,71.583893 
	C40.419247,41.360386 74.379128,26.781506 104.155235,39.061985 
	C114.884102,43.486866 123.442017,50.680443 130.300095,60.217197 
	C131.880264,59.141388 133.199600,58.243156 134.719147,57.208622 
	C134.029053,56.150501 133.562622,55.281647 132.955093,54.526268 
	C117.946289,35.865276 98.623131,27.107607 74.670059,29.903198 
	C26.379856,35.539196 1.930944,91.584259 30.649693,130.847916 
	C49.051750,156.006775 80.674286,161.232925 107.317917,151.851868 
	C108.532631,151.424164 109.725113,148.938309 109.739250,147.400131 
	C109.906219,129.238037 109.852837,111.073837 109.827194,92.910233 
	C109.825890,91.988045 109.549339,91.066261 109.364883,89.920288 
	C107.519722,90.060059 105.947914,90.179115 104.152954,90.315079 
	C104.152954,97.848083 103.990433,105.001129 104.232788,112.140434 
	C104.330025,115.004814 103.392914,116.612885 100.712311,117.051369 
	C93.880150,118.168945 87.011131,120.125618 80.185898,120.011421 
	C63.171963,119.726761 52.689835,106.281242 54.928654,88.760780 
	C56.905602,73.289658 72.278442,62.610382 87.723442,65.734467 
	C95.126404,67.231873 100.611473,71.454208 105.371880,77.254707 
	C106.916267,76.216629 108.223801,75.337753 109.795883,74.281059 
	C103.116943,65.180511 94.582291,60.312950 83.510033,59.777634 
	C66.628601,58.961456 51.285320,71.666672 49.254471,88.317787 
	C46.961887,107.114891 57.171204,121.537949 75.031006,125.115311 
	C84.962151,127.104538 94.393776,125.169434 104.286499,122.547623 
	C103.635658,124.414482 102.764420,126.417290 101.320473,126.999352 
	C93.502090,130.150986 85.374237,131.201050 76.913948,130.191055 
	C56.466530,127.750000 43.687031,111.853226 44.720612,89.852539 
	C45.589241,71.362938 62.221977,55.316750 80.797668,54.991695 
	C94.478523,54.752300 105.141075,60.584557 113.623993,71.523407 
	C115.172997,70.491859 116.587784,69.549683 118.007568,68.604179 
	C107.958504,53.969002 90.552185,46.856754 73.698311,50.251488 
	C51.248901,54.773281 36.788334,75.044823 39.176128,98.646408 
	C41.358837,120.220879 59.368965,136.154449 81.955383,135.876556 
	C89.275726,135.786469 96.578529,134.270859 105.400757,133.228775 
	C103.641273,135.225662 102.721016,137.276443 101.297089,137.723694 
	C91.646652,140.754883 81.733292,141.771545 71.774940,139.597977 
	C50.690559,134.995972 36.294346,118.667847 34.734730,97.935303 
	C33.038124,75.381744 44.640324,56.165119 64.767952,48.191525 
	C84.349968,40.434078 106.729446,46.567593 119.973503,63.312492 
	C120.664070,64.185608 121.421448,65.005867 122.233383,65.950371 
	C123.764862,64.809219 125.045822,63.854748 126.306221,62.915592 
	C112.337448,41.300465 82.925659,33.279541 59.448109,44.429890 
	C34.695740,56.185696 22.870317,83.981239 31.436480,110.453964 
	C35.343208,122.527237 42.908752,131.794312 53.740364,138.305542 
	C69.589516,147.832962 86.468987,147.750458 103.741730,143.045380 
	C104.775200,146.084183 103.868011,147.383896 100.898499,148.167618 
	C88.749573,151.374008 76.666916,152.132004 63.763710,147.977905 
M119.935684,119.500015 
	C119.935684,109.733788 119.935684,99.967567 119.935684,90.229546 
	C117.766899,90.229546 116.165665,90.229546 114.365227,90.229546 
	C114.365227,110.515213 114.365227,130.567139 114.365227,150.707123 
	C116.293892,150.707123 117.996185,150.707123 119.935684,150.707123 
	C119.935684,140.424484 119.935684,130.462250 119.935684,119.500015 
M124.267410,130.499634 
	C124.267410,137.270905 124.267410,144.042191 124.267410,151.101807 
	C126.633904,150.984314 128.362961,150.898483 129.961761,150.819107 
	C129.961761,130.316467 129.961761,110.377983 129.961761,90.298851 
	C128.028015,90.298851 126.320343,90.298851 124.267410,90.298851 
	C124.267410,103.569572 124.267410,116.534630 124.267410,130.499634 
M134.396271,114.499817 
	C134.396271,126.591988 134.396271,138.684158 134.396271,150.829239 
	C136.558456,150.829239 138.162659,150.829239 139.838654,150.829239 
	C139.838654,130.448792 139.838654,110.284935 139.838654,89.894798 
	C137.878387,90.034081 136.294189,90.146645 134.396301,90.281494 
	C134.396301,98.244591 134.396301,105.872215 134.396271,114.499817 
z"/>
<path fill="#F0F0F0" opacity="1.000000" stroke="none" 
	d="
M64.159332,148.054199 
	C76.666916,152.132004 88.749573,151.374008 100.898499,148.167618 
	C103.868011,147.383896 104.775200,146.084183 103.741730,143.045380 
	C86.468987,147.750458 69.589516,147.832962 53.740364,138.305542 
	C42.908752,131.794312 35.343208,122.527237 31.436480,110.453964 
	C22.870317,83.981239 34.695740,56.185696 59.448109,44.429890 
	C82.925659,33.279541 112.337448,41.300465 126.306221,62.915592 
	C125.045822,63.854748 123.764862,64.809219 122.233383,65.950371 
	C121.421448,65.005867 120.664070,64.185608 119.973503,63.312492 
	C106.729446,46.567593 84.349968,40.434078 64.767952,48.191525 
	C44.640324,56.165119 33.038124,75.381744 34.734730,97.935303 
	C36.294346,118.667847 50.690559,134.995972 71.774940,139.597977 
	C81.733292,141.771545 91.646652,140.754883 101.297089,137.723694 
	C102.721016,137.276443 103.641273,135.225662 105.400757,133.228775 
	C96.578529,134.270859 89.275726,135.786469 81.955383,135.876556 
	C59.368965,136.154449 41.358837,120.220879 39.176128,98.646408 
	C36.788334,75.044823 51.248901,54.773281 73.698311,50.251488 
	C90.552185,46.856754 107.958504,53.969002 118.007568,68.604179 
	C116.587784,69.549683 115.172997,70.491859 113.623993,71.523407 
	C105.141075,60.584557 94.478523,54.752300 80.797668,54.991695 
	C62.221977,55.316750 45.589241,71.362938 44.720612,89.852539 
	C43.687031,111.853226 56.466530,127.750000 76.913948,130.191055 
	C85.374237,131.201050 93.502090,130.150986 101.320473,126.999352 
	C102.764420,126.417290 103.635658,124.414482 104.286499,122.547623 
	C94.393776,125.169434 84.962151,127.104538 75.031006,125.115311 
	C57.171204,121.537949 46.961887,107.114891 49.254471,88.317787 
	C51.285320,71.666672 66.628601,58.961456 83.510033,59.777634 
	C94.582291,60.312950 103.116943,65.180511 109.795883,74.281059 
	C108.223801,75.337753 106.916267,76.216629 105.371880,77.254707 
	C100.611473,71.454208 95.126404,67.231873 87.723442,65.734467 
	C72.278442,62.610382 56.905602,73.289658 54.928654,88.760780 
	C52.689835,106.281242 63.171963,119.726761 80.185898,120.011421 
	C87.011131,120.125618 93.880150,118.168945 100.712311,117.051369 
	C103.392914,116.612885 104.330025,115.004814 104.232788,112.140434 
	C103.990433,105.001129 104.152954,97.848083 104.152954,90.315079 
	C105.947914,90.179115 107.519722,90.060059 109.364883,89.920288 
	C109.549339,91.066261 109.825890,91.988045 109.827194,92.910233 
	C109.852837,111.073837 109.906219,129.238037 109.739250,147.400131 
	C109.725113,148.938309 108.532631,151.424164 107.317917,151.851868 
	C80.674286,161.232925 49.051750,156.006775 30.649693,130.847916 
	C1.930944,91.584259 26.379856,35.539196 74.670059,29.903198 
	C98.623131,27.107607 117.946289,35.865276 132.955093,54.526268 
	C133.562622,55.281647 134.029053,56.150501 134.719147,57.208622 
	C133.199600,58.243156 131.880264,59.141388 130.300095,60.217197 
	C123.442017,50.680443 114.884102,43.486866 104.155235,39.061985 
	C74.379128,26.781506 40.419247,41.360386 28.353062,71.583893 
	C16.311371,101.746040 31.149868,135.606583 61.438610,147.084381 
	C62.215019,147.378601 62.988735,147.679901 64.159332,148.054199 
z"/>
<path fill="#ECECEC" opacity="1.000000" stroke="none" 
	d="
M119.935684,120.000015 
	C119.935684,130.462250 119.935684,140.424484 119.935684,150.707123 
	C117.996185,150.707123 116.293892,150.707123 114.365227,150.707123 
	C114.365227,130.567139 114.365227,110.515213 114.365227,90.229546 
	C116.165665,90.229546 117.766899,90.229546 119.935684,90.229546 
	C119.935684,99.967567 119.935684,109.733788 119.935684,120.000015 
z"/>
<path fill="#E9E9E9" opacity="1.000000" stroke="none" 
	d="
M124.267410,129.999664 
	C124.267410,116.534630 124.267410,103.569572 124.267410,90.298851 
	C126.320343,90.298851 128.028015,90.298851 129.961761,90.298851 
	C129.961761,110.377983 129.961761,130.316467 129.961761,150.819107 
	C128.362961,150.898483 126.633904,150.984314 124.267410,151.101807 
	C124.267410,144.042191 124.267410,137.270905 124.267410,129.999664 
z"/>
<path fill="#E4E4E4" opacity="1.000000" stroke="none" 
	d="
M134.396286,113.999832 
	C134.396301,105.872215 134.396301,98.244591 134.396301,90.281494 
	C136.294189,90.146645 137.878387,90.034081 139.838654,89.894798 
	C139.838654,110.284935 139.838654,130.448792 139.838654,150.829239 
	C138.162659,150.829239 136.558456,150.829239 134.396271,150.829239 
	C134.396271,138.684158 134.396271,126.591988 134.396286,113.999832 
z"/>
</svg>